<?xml version="1.0" encoding="UTF-8"?>
<!DOCTYPE svg PUBLIC "-//W3C//DTD SVG 1.1//EN" "http://www.w3.org/Graphics/SVG/1.1/DTD/svg11.dtd">
<svg xmlns="http://www.w3.org/2000/svg" version="1.1" width="2560px" height="398px" style="shape-rendering:geometricPrecision; text-rendering:geometricPrecision; image-rendering:optimizeQuality; fill-rule:evenodd; clip-rule:evenodd" xmlns:xlink="http://www.w3.org/1999/xlink">
<g><path style="opacity:0.991" fill="#babdbf" d="M 10.5,10.5 C 178.5,10.5 346.5,10.5 514.5,10.5C 514.5,52.5 514.5,94.5 514.5,136.5C 346.5,136.5 178.5,136.5 10.5,136.5C 10.5,94.5 10.5,52.5 10.5,10.5 Z"/></g>
<g><path style="opacity:0.97" fill="#444544" d="M 778.5,10.5 C 811.125,8.90152 842.791,13.5682 873.5,24.5C 878.36,48.652 882.693,72.9853 886.5,97.5C 881.27,98.0984 876.103,99.0984 871,100.5C 870.167,100.167 869.333,99.8333 868.5,99.5C 865.598,82.8772 860.098,67.2105 852,52.5C 844.371,42.9295 834.538,36.7628 822.5,34C 797.383,28.3371 772.383,29.6704 747.5,38C 710.61,55.6697 701.443,82.8364 720,119.5C 724.124,125.958 729.29,131.458 735.5,136C 745.992,143.749 756.992,150.749 768.5,157C 795.657,170.745 822.657,184.745 849.5,199C 896.986,227.83 912.819,268.996 897,322.5C 885.979,347.852 867.479,365.352 841.5,375C 810.787,385.748 779.287,388.914 747,384.5C 724.315,381.828 702.315,376.495 681,368.5C 677.073,342.795 671.573,317.462 664.5,292.5C 670.537,291.201 676.537,290.035 682.5,289C 687.039,308.243 695.206,325.743 707,341.5C 718.766,354.134 733.266,361.634 750.5,364C 773.181,368.187 795.514,366.853 817.5,360C 859.235,342.178 873.735,311.345 861,267.5C 852.606,250.439 840.106,237.273 823.5,228C 795.675,213.588 768.008,198.921 740.5,184C 729.563,177.393 718.896,170.393 708.5,163C 680.157,139.977 669.657,110.477 677,74.5C 685.985,48.847 703.152,31.0137 728.5,21C 744.837,15.2339 761.504,11.7339 778.5,10.5 Z"/></g>
<g><path style="opacity:0.971" fill="#444544" d="M 1509.5,17.5 C 1560.83,17.3333 1612.17,17.5 1663.5,18C 1690.91,17.4548 1716.91,23.1215 1741.5,35C 1780.76,59.4861 1791.59,93.3194 1774,136.5C 1761.59,157.569 1743.76,172.069 1720.5,180C 1711.02,183.119 1701.36,185.452 1691.5,187C 1715.86,188.505 1738.86,194.839 1760.5,206C 1798.82,229.262 1812.32,262.762 1801,306.5C 1787.89,344.597 1761.39,367.431 1721.5,375C 1709.61,377.32 1697.61,378.653 1685.5,379C 1626.83,379.5 1568.17,379.667 1509.5,379.5C 1509.5,374.167 1509.5,368.833 1509.5,363.5C 1519.62,363.994 1529.62,363.161 1539.5,361C 1545.19,358.794 1548.36,354.627 1549,348.5C 1550.15,298.527 1550.65,248.527 1550.5,198.5C 1550.65,148.473 1550.15,98.4731 1549,48.5C 1546.54,38.4958 1540.04,33.6625 1529.5,34C 1522.84,33.5004 1516.17,33.3337 1509.5,33.5C 1509.5,28.1667 1509.5,22.8333 1509.5,17.5 Z M 1601.5,37.5 C 1620.48,37.5635 1638.98,37.5635 1657,37.5C 1676.81,37.8261 1695.64,42.3261 1713.5,51C 1730.43,61.3291 1739.93,76.4957 1742,96.5C 1744.46,137.371 1725.96,163.205 1686.5,174C 1679.57,175.719 1672.57,177.052 1665.5,178C 1639.86,179.389 1614.19,179.889 1588.5,179.5C 1588.33,135.832 1588.5,92.1654 1589,48.5C 1589.67,40.7597 1593.84,37.0931 1601.5,37.5 Z M 1588.5,199.5 C 1613.84,199.333 1639.17,199.5 1664.5,200C 1686.53,200.205 1707.53,204.872 1727.5,214C 1755.79,230.744 1767.95,255.577 1764,288.5C 1759.68,325.152 1739.52,347.652 1703.5,356C 1694,357.608 1684.5,358.775 1675,359.5C 1651.71,359.645 1628.21,359.478 1604.5,359C 1594.5,359.331 1589.33,354.498 1589,344.5C 1588.5,296.168 1588.33,247.834 1588.5,199.5 Z"/></g>
<g><path style="opacity:0.962" fill="#444544" d="M 1296.5,25.5 C 1319.72,24.7011 1339.55,32.3678 1356,48.5C 1363.99,57.1251 1366.66,67.1251 1364,78.5C 1357.64,87.0352 1349.8,88.5352 1340.5,83C 1337.98,80.7802 1335.81,78.2802 1334,75.5C 1330.09,66.6817 1325.43,58.3484 1320,50.5C 1310.4,42.104 1299.56,40.2706 1287.5,45C 1273.21,53.7136 1265.04,66.5469 1263,83.5C 1262.11,88.4702 1261.45,93.4702 1261,98.5C 1260.5,115.497 1260.33,132.497 1260.5,149.5C 1281.83,149.5 1303.17,149.5 1324.5,149.5C 1324.5,155.167 1324.5,160.833 1324.5,166.5C 1303.17,166.5 1281.83,166.5 1260.5,166.5C 1260.33,227.834 1260.5,289.168 1261,350.5C 1263.46,360.504 1269.96,365.338 1280.5,365C 1286.82,365.5 1293.16,365.666 1299.5,365.5C 1299.5,370.167 1299.5,374.833 1299.5,379.5C 1261.83,379.5 1224.17,379.5 1186.5,379.5C 1186.5,374.833 1186.5,370.167 1186.5,365.5C 1195.96,365.956 1205.29,365.123 1214.5,363C 1218.82,360.685 1221.65,357.185 1223,352.5C 1224.48,290.532 1224.98,228.532 1224.5,166.5C 1212.17,166.5 1199.83,166.5 1187.5,166.5C 1187.5,160.833 1187.5,155.167 1187.5,149.5C 1199.83,149.5 1212.17,149.5 1224.5,149.5C 1224.13,131.468 1224.63,113.468 1226,95.5C 1231.59,53.7442 1255.09,30.4109 1296.5,25.5 Z"/></g>
<g><path style="opacity:0.976" fill="#444544" d="M 2373.5,26.5 C 2375.94,26.317 2378.1,26.9837 2380,28.5C 2380.33,103.5 2380.67,178.5 2381,253.5C 2408.97,226.86 2436.31,199.527 2463,171.5C 2463.74,169.559 2463.58,167.726 2462.5,166C 2457.35,164.149 2452.01,162.982 2446.5,162.5C 2446.31,158.263 2446.31,154.097 2446.5,150C 2471.5,149.5 2496.5,149.333 2521.5,149.5C 2521.5,154.167 2521.5,158.833 2521.5,163.5C 2510.6,162.966 2500.94,166.132 2492.5,173C 2473.17,191.667 2453.83,210.333 2434.5,229C 2461.79,270.415 2488.96,311.915 2516,353.5C 2524.68,363.118 2535.51,367.118 2548.5,365.5C 2548.5,370.167 2548.5,374.833 2548.5,379.5C 2529.16,379.667 2509.83,379.5 2490.5,379C 2463.36,336.366 2436.03,293.866 2408.5,251.5C 2399.18,260.319 2390.01,269.319 2381,278.5C 2380.11,303.523 2380.45,328.523 2382,353.5C 2383.41,360.907 2387.91,364.74 2395.5,365C 2400.15,365.499 2404.82,365.666 2409.5,365.5C 2409.5,370.167 2409.5,374.833 2409.5,379.5C 2377.69,379.992 2346.02,379.492 2314.5,378C 2314.58,373.901 2314.92,369.901 2315.5,366C 2322.98,365.943 2330.31,364.943 2337.5,363C 2341.01,360.831 2343.18,357.664 2344,353.5C 2345.14,306.689 2345.64,259.855 2345.5,213C 2345.64,166.145 2345.14,119.311 2344,72.5C 2343.29,65.4554 2339.46,61.2887 2332.5,60C 2326.84,59.2602 2321.18,58.5935 2315.5,58C 2314.93,54.5895 2314.6,51.2562 2314.5,48C 2328.01,45.2269 2341.34,41.5602 2354.5,37C 2361.22,33.9795 2367.55,30.4795 2373.5,26.5 Z"/></g>
<g><path style="opacity:0.964" fill="#444544" d="M 1404.5,85.5 C 1409.17,85.5 1413.83,85.5 1418.5,85.5C 1418.5,106.833 1418.5,128.167 1418.5,149.5C 1436.17,149.5 1453.83,149.5 1471.5,149.5C 1471.5,155.167 1471.5,160.833 1471.5,166.5C 1453.83,166.5 1436.17,166.5 1418.5,166.5C 1418.02,226.865 1418.52,287.199 1420,347.5C 1422.85,359.685 1430.52,366.019 1443,366.5C 1454.66,365.832 1465,361.832 1474,354.5C 1476.96,358.244 1479.79,362.078 1482.5,366C 1463.47,382.593 1441.47,388.259 1416.5,383C 1394.3,376.137 1383.13,360.97 1383,337.5C 1382.5,280.501 1382.33,223.501 1382.5,166.5C 1370.16,166.667 1357.83,166.5 1345.5,166C 1345.17,162.333 1344.83,158.667 1344.5,155C 1356.52,153.495 1367.85,149.828 1378.5,144C 1391.06,133.399 1398.89,119.899 1402,103.5C 1403.38,97.5677 1404.21,91.5677 1404.5,85.5 Z"/></g>
<g><path style="opacity:0.971" fill="#444544" d="M 1044.5,143.5 C 1112.17,143.675 1149.67,177.342 1157,244.5C 1159.95,273.283 1156.62,301.283 1147,328.5C 1136.35,353.917 1117.85,370.75 1091.5,379C 1065.26,385.938 1038.93,386.272 1012.5,380C 975.356,367.84 953.523,342.34 947,303.5C 942.063,276.095 942.396,248.761 948,221.5C 961.557,172.441 993.723,146.441 1044.5,143.5 Z M 1041.5,160.5 C 1079.76,158.262 1103.92,175.596 1114,212.5C 1120.11,241.638 1121.11,270.971 1117,300.5C 1114.6,322.467 1105.43,340.967 1089.5,356C 1064.05,372.191 1038.39,372.525 1012.5,357C 1000.42,347.566 992.255,335.399 988,320.5C 978.802,285.009 978.135,249.342 986,213.5C 992.781,183.212 1011.28,165.546 1041.5,160.5 Z"/></g>
<g><path style="opacity:0.966" fill="#444544" d="M 1923.5,143.5 C 1932.23,143.779 1941.23,144.279 1950.5,145C 1985.15,150.32 2003.98,170.486 2007,205.5C 2007.03,254.532 2007.7,303.532 2009,352.5C 2010.63,364.135 2017.13,368.635 2028.5,366C 2031.1,364.864 2033.76,364.031 2036.5,363.5C 2037.33,367.807 2037.99,372.14 2038.5,376.5C 2032,378.831 2025.33,380.665 2018.5,382C 1996,386.448 1981.17,377.948 1974,356.5C 1944.67,383.768 1910.84,391.268 1872.5,379C 1853.02,371.187 1841.18,357.021 1837,336.5C 1832.99,303.674 1845.49,279.508 1874.5,264C 1892.52,254.157 1911.52,246.824 1931.5,242C 1944.55,238.988 1957.55,235.821 1970.5,232.5C 1971.67,221.515 1971.83,210.515 1971,199.5C 1970.58,179.45 1960.75,166.95 1941.5,162C 1908.23,156.378 1886.4,169.545 1876,201.5C 1869.34,209.539 1861.17,211.372 1851.5,207C 1845.03,200.067 1843.87,192.234 1848,183.5C 1858.13,166.047 1872.96,154.547 1892.5,149C 1902.83,146.28 1913.16,144.447 1923.5,143.5 Z M 1968.5,249.5 C 1969.5,249.5 1970.5,249.5 1971.5,249.5C 1971.67,279.169 1971.5,308.835 1971,338.5C 1951.14,361.344 1926.64,368.844 1897.5,361C 1881.1,352.878 1873.1,339.545 1873.5,321C 1873.62,305.769 1879.62,293.436 1891.5,284C 1905.3,273.887 1920.3,265.887 1936.5,260C 1947.25,256.361 1957.92,252.861 1968.5,249.5 Z"/></g>
<g><path style="opacity:0.968" fill="#444544" d="M 2193.5,143.5 C 2214.41,142.414 2232.58,148.747 2248,162.5C 2256.9,174.319 2261.9,187.652 2263,202.5C 2263.04,252.858 2263.7,303.192 2265,353.5C 2266.17,360 2270,363.833 2276.5,365C 2280.49,365.499 2284.49,365.666 2288.5,365.5C 2288.5,370.167 2288.5,374.833 2288.5,379.5C 2259.83,379.5 2231.17,379.5 2202.5,379.5C 2202.5,374.833 2202.5,370.167 2202.5,365.5C 2208.24,365.789 2213.91,365.289 2219.5,364C 2223.94,361.889 2226.44,358.389 2227,353.5C 2228.62,306.188 2228.95,258.854 2228,211.5C 2227.96,173.446 2209.46,158.279 2172.5,166C 2160.95,171.222 2150.78,178.389 2142,187.5C 2136,194.833 2130,202.167 2124,209.5C 2123.04,258.525 2123.37,307.525 2125,356.5C 2126.08,359.913 2128.24,362.413 2131.5,364C 2136.75,365.271 2142.09,365.771 2147.5,365.5C 2147.5,370.167 2147.5,374.833 2147.5,379.5C 2118.16,379.667 2088.83,379.5 2059.5,379C 2058.53,374.599 2058.2,370.099 2058.5,365.5C 2064.91,365.817 2071.24,365.317 2077.5,364C 2081.57,362.928 2084.41,360.428 2086,356.5C 2087.15,328.039 2087.65,299.539 2087.5,271C 2087.65,242.787 2087.15,214.62 2086,186.5C 2084.53,182.359 2081.69,179.526 2077.5,178C 2071.21,176.893 2064.88,176.393 2058.5,176.5C 2058.5,172.5 2058.5,168.5 2058.5,164.5C 2078.46,162.46 2096.79,155.96 2113.5,145C 2117.71,144.376 2120.05,146.209 2120.5,150.5C 2121.27,162.502 2122.1,174.502 2123,186.5C 2140.44,162.04 2163.94,147.706 2193.5,143.5 Z"/></g>
<g><path style="opacity:0.991" fill="#babdbf" d="M 10.5,260.5 C 178.5,260.5 346.5,260.5 514.5,260.5C 514.5,302.5 514.5,344.5 514.5,386.5C 346.5,386.5 178.5,386.5 10.5,386.5C 10.5,344.5 10.5,302.5 10.5,260.5 Z"/></g>
</svg>



