<?xml version="1.0" encoding="UTF-8"?>
<!DOCTYPE svg PUBLIC "-//W3C//DTD SVG 1.1//EN" "http://www.w3.org/Graphics/SVG/1.1/DTD/svg11.dtd">
<svg xmlns="http://www.w3.org/2000/svg" version="1.1" width="5000px" height="2500px" style="shape-rendering:geometricPrecision; text-rendering:geometricPrecision; image-rendering:optimizeQuality; fill-rule:evenodd; clip-rule:evenodd" xmlns:xlink="http://www.w3.org/1999/xlink">
<g><path style="opacity:1" fill="#eb0027" d="M 1563.5,613.5 C 1564.26,615.262 1565.6,616.262 1567.5,616.5C 1575.87,625.068 1580.7,635.402 1582,647.5C 1583,654.467 1583.66,661.467 1584,668.5C 1584.45,719.056 1584.12,769.056 1583,818.5C 1579.97,823.674 1576.8,828.674 1573.5,833.5C 1572.09,833.973 1571.43,834.973 1571.5,836.5C 1570.88,838.754 1569.54,840.421 1567.5,841.5C 1565.74,842.262 1564.74,843.596 1564.5,845.5C 1563.17,847.5 1561.5,849.167 1559.5,850.5C 1557.97,850.427 1556.97,851.094 1556.5,852.5C 1555.71,853.794 1554.71,854.961 1553.5,856C 1546.22,860.891 1538.72,865.391 1531,869.5C 1494.54,869.044 1458.04,868.71 1421.5,868.5C 1155.64,869.166 889.804,869.833 624,870.5C 443.784,870.462 255.618,870.296 59.5,870C 14.5531,852.648 -4.6136,819.815 2,771.5C 1.33333,740.5 1.33333,709.5 2,678.5C 2.2366,666.096 3.2366,653.763 5,641.5C 7.44694,633.269 11.4469,625.936 17,619.5C 25.7629,608.725 36.2629,600.225 48.5,594C 51.6572,592.422 54.9906,591.422 58.5,591C 67.4113,590.819 76.2447,590.319 85,589.5C 86.5333,589.944 88.0333,590.277 89.5,590.5C 113.696,589.838 137.863,589.171 162,588.5C 165.41,589.068 168.744,589.402 172,589.5C 221.667,588.833 271.333,588.167 321,587.5C 636.941,587.501 952.941,587.501 1269,587.5C 1316.67,588.167 1364.33,588.833 1412,589.5C 1415.26,589.402 1418.59,589.068 1422,588.5C 1447,589.167 1472,589.833 1497,590.5C 1498.27,590.384 1499.6,590.051 1501,589.5C 1520.1,586.968 1537.26,591.468 1552.5,603C 1556.67,606.002 1560.33,609.502 1563.5,613.5 Z"/></g>
<g><path style="opacity:1" fill="#004490" d="M 1952.5,587.5 C 2235.02,587.533 2515.52,587.533 2794,587.5C 2814.67,588.167 2835.33,588.833 2856,589.5C 2856.41,589.043 2856.91,588.709 2857.5,588.5C 2868.55,589.037 2879.55,590.203 2890.5,592C 2893.79,594.741 2895.96,598.241 2897,602.5C 2900.71,620.637 2902.71,638.97 2903,657.5C 2903.17,675.5 2903.33,693.5 2903.5,711.5C 2903.81,752.605 2902.64,793.605 2900,834.5C 2899.32,842.284 2897.98,849.951 2896,857.5C 2893.67,866.425 2887.84,870.592 2878.5,870C 2862.27,870.874 2846.11,871.708 2830,872.5C 2827.19,872.614 2824.52,872.281 2822,871.5C 2793.33,872.167 2764.67,872.833 2736,873.5C 2683.4,873.261 2628.57,873.261 2571.5,873.5C 2571.45,1152.68 2571.45,1430.51 2571.5,1707C 2570.83,1750.67 2570.17,1794.33 2569.5,1838C 2570.02,1838.56 2570.36,1839.23 2570.5,1840C 2569.75,1856.49 2568.92,1872.99 2568,1889.5C 2567.44,1896.07 2563.94,1900.24 2557.5,1902C 2541.42,1906.32 2525.25,1908.16 2509,1907.5C 2497.33,1908.17 2485.67,1908.83 2474,1909.5C 2420.34,1909.46 2366.34,1909.46 2312,1909.5C 2302.4,1907.93 2292.9,1905.76 2283.5,1903C 2278.06,1901.38 2274.56,1897.88 2273,1892.5C 2272.1,1884.62 2271.27,1876.79 2270.5,1869C 2270.83,1868.67 2271.17,1868.33 2271.5,1868C 2270.83,1850.33 2270.17,1832.67 2269.5,1815C 2269.5,1501.37 2269.5,1187.54 2269.5,873.5C 2180.38,873.445 2092.21,873.445 2005,873.5C 1992.67,872.833 1980.33,872.167 1968,871.5C 1959.75,872.506 1952.75,869.839 1947,863.5C 1943.41,852.408 1941.91,841.241 1942.5,830C 1940.3,755.701 1940.47,680.534 1943,604.5C 1943.6,601.363 1944.6,598.363 1946,595.5C 1948.78,593.229 1950.95,590.563 1952.5,587.5 Z"/></g>
<g><path style="opacity:1" fill="#004490" d="M 3835.5,587.5 C 3851.81,587.857 3868.31,587.857 3885,587.5C 3914.25,588.007 3943.75,589.84 3973.5,593C 3988.35,594.455 4002.01,599.122 4014.5,607C 4019.55,613.593 4023.72,620.76 4027,628.5C 4116.37,832.233 4202.7,1037.23 4286,1243.5C 4302.33,1286.82 4317.66,1330.49 4332,1374.5C 4334.5,1381.83 4337.66,1388.83 4341.5,1395.5C 4370.27,1315.63 4400.43,1236.3 4432,1157.5C 4506.91,973.769 4583.58,790.769 4662,608.5C 4666.04,603.898 4670.87,600.398 4676.5,598C 4692.33,592.064 4708.49,589.564 4725,590.5C 4751.33,589.833 4777.67,589.167 4804,588.5C 4843.06,588.756 4883.73,589.423 4926,590.5C 4927.58,590.507 4929.25,590.174 4931,589.5C 4947.01,590.109 4962.84,592.275 4978.5,596C 4985.07,598.867 4991.24,602.367 4997,606.5C 4997.49,998.309 4997.66,1389.14 4997.5,1779C 4996.75,1813.71 4995.92,1848.21 4995,1882.5C 4994.67,1885.83 4994.33,1889.17 4994,1892.5C 4993.31,1895.2 4991.81,1897.36 4989.5,1899C 4984.92,1901.97 4979.92,1903.97 4974.5,1905C 4953.68,1907.51 4932.85,1909.01 4912,1909.5C 4867.9,1909.45 4824.23,1909.45 4781,1909.5C 4764.98,1908.88 4748.98,1907.88 4733,1906.5C 4718.41,1907.41 4706.07,1902.41 4696,1891.5C 4695.83,1676.6 4695.33,1461.76 4694.5,1247C 4694.83,1245.33 4695.17,1243.67 4695.5,1242C 4694.8,1204.62 4693.97,1167.45 4693,1130.5C 4625.77,1301.85 4556.77,1472.52 4486,1642.5C 4479.86,1656.58 4473.53,1670.58 4467,1684.5C 4460.77,1689.7 4453.6,1692.86 4445.5,1694C 4435.53,1695.82 4425.7,1696.65 4416,1696.5C 4405.67,1697.17 4395.33,1697.83 4385,1698.5C 4351.88,1698.45 4318.88,1698.45 4286,1698.5C 4276.33,1697.83 4266.67,1697.17 4257,1696.5C 4242.73,1696.76 4228.23,1694.93 4213.5,1691C 4208.55,1689.28 4204.39,1686.45 4201,1682.5C 4190.95,1662.37 4181.29,1642.04 4172,1621.5C 4101.25,1459.57 4032.25,1296.9 3965,1133.5C 3964.07,1155.06 3963.23,1176.56 3962.5,1198C 3962.83,1199 3963.17,1200 3963.5,1201C 3962.36,1265.9 3961.36,1331.56 3960.5,1398C 3960.31,1406.09 3960.64,1413.76 3961.5,1421C 3960.65,1538.6 3959.65,1654.93 3958.5,1770C 3959.4,1775.07 3959.74,1780.07 3959.5,1785C 3958.71,1816.44 3957.87,1847.94 3957,1879.5C 3956.72,1885.22 3956.05,1890.88 3955,1896.5C 3950.85,1900.16 3946.01,1902.66 3940.5,1904C 3927.25,1906.66 3914.09,1907.83 3901,1907.5C 3890,1908.17 3879,1908.83 3868,1909.5C 3814.65,1909.6 3760.49,1909.43 3705.5,1909C 3695.03,1907.65 3684.7,1905.65 3674.5,1903C 3668.35,1900.51 3663.19,1896.67 3659,1891.5C 3658.52,1509.88 3658.35,1130.71 3658.5,754C 3659.17,721 3659.83,688 3660.5,655C 3660.17,654.667 3659.83,654.333 3659.5,654C 3660.26,639.888 3661.09,625.722 3662,611.5C 3662.78,605.374 3665.95,600.874 3671.5,598C 3679.49,594.612 3687.82,592.612 3696.5,592C 3718.41,590.344 3740.24,589.178 3762,588.5C 3765.18,588.299 3768.18,588.633 3771,589.5C 3792.6,588.839 3814.1,588.172 3835.5,587.5 Z"/></g>
<g><path style="opacity:1" fill="#004490" d="M 3236.5,588.5 C 3269.42,588.795 3303.58,589.461 3339,590.5C 3340.27,590.384 3341.6,590.051 3343,589.5C 3351.77,590.394 3360.61,591.227 3369.5,592C 3383.79,593.095 3396.62,597.928 3408,606.5C 3408.49,991.309 3408.66,1375.14 3408.5,1758C 3407.83,1788 3407.17,1818 3406.5,1848C 3406.96,1848.41 3407.29,1848.91 3407.5,1849.5C 3407.02,1864.87 3405.85,1880.21 3404,1895.5C 3396.11,1902.13 3386.94,1905.63 3376.5,1906C 3356.58,1907.59 3336.41,1908.76 3316,1909.5C 3262.67,1909.6 3208.5,1909.44 3153.5,1909C 3141.95,1907.68 3130.61,1905.35 3119.5,1902C 3113.66,1899.83 3110.5,1895.67 3110,1889.5C 3109.08,1874.95 3108.25,1860.45 3107.5,1846C 3107.83,1845 3108.17,1844 3108.5,1843C 3107.83,1803.33 3107.17,1763.67 3106.5,1724C 3106.51,1409.95 3106.51,1097.29 3106.5,786C 3107.17,743.333 3107.83,700.667 3108.5,658C 3108.04,657.586 3107.71,657.086 3107.5,656.5C 3108.25,641.193 3109.08,625.86 3110,610.5C 3110.03,606.614 3111.53,603.448 3114.5,601C 3120.52,596.771 3127.18,594.104 3134.5,593C 3147.14,591.105 3159.64,590.272 3172,590.5C 3193.6,589.839 3215.1,589.172 3236.5,588.5 Z"/></g>
<g><path style="opacity:0.476" fill="#fd000c" d="M 1563.5,613.5 C 1565.4,613.738 1566.74,614.738 1567.5,616.5C 1565.6,616.262 1564.26,615.262 1563.5,613.5 Z"/></g>
<g><path style="opacity:0.476" fill="#fd000c" d="M 1573.5,833.5 C 1573.57,835.027 1572.91,836.027 1571.5,836.5C 1571.43,834.973 1572.09,833.973 1573.5,833.5 Z"/></g>
<g><path style="opacity:0.476" fill="#fd000c" d="M 1567.5,841.5 C 1567.26,843.404 1566.26,844.738 1564.5,845.5C 1564.74,843.596 1565.74,842.262 1567.5,841.5 Z"/></g>
<g><path style="opacity:0.476" fill="#fd000c" d="M 1559.5,850.5 C 1559.03,851.906 1558.03,852.573 1556.5,852.5C 1556.97,851.094 1557.97,850.427 1559.5,850.5 Z"/></g>
<g><path style="opacity:0.524" fill="#fe000c" d="M 502.5,1108.5 C 546.997,1107.5 591.664,1107.17 636.5,1107.5C 636.5,1201.83 636.5,1296.17 636.5,1390.5C 635.5,1390.5 634.5,1390.5 633.5,1390.5C 635.494,1296.71 636.16,1202.71 635.5,1108.5C 591.167,1108.5 546.833,1108.5 502.5,1108.5 Z"/></g>
<g><path style="opacity:0.346" fill="#fd000c" d="M 1084.5,1108.5 C 1039.83,1108.5 995.167,1108.5 950.5,1108.5C 950.5,1202.5 950.5,1296.5 950.5,1390.5C 949.501,1296.33 949.167,1202 949.5,1107.5C 994.67,1107.17 1039.67,1107.5 1084.5,1108.5 Z"/></g>
<g><path style="opacity:1" fill="#eb0027" d="M 502.5,1108.5 C 546.833,1108.5 591.167,1108.5 635.5,1108.5C 636.16,1202.71 635.494,1296.71 633.5,1390.5C 470.985,1390.48 309.485,1390.48 149,1390.5C 121.012,1389.72 93.1784,1388.88 65.5,1388C 57.6548,1388.04 50.3215,1386.21 43.5,1382.5C 43.0269,1381.09 42.0269,1380.43 40.5,1380.5C 38.326,1380.25 36.6594,1379.25 35.5,1377.5C 35.0269,1376.09 34.0269,1375.43 32.5,1375.5C 31.8333,1375.5 31.5,1375.17 31.5,1374.5C 31.0269,1373.09 30.0269,1372.43 28.5,1372.5C 25.8333,1370.5 23.5,1368.17 21.5,1365.5C 21.2624,1363.6 20.2624,1362.26 18.5,1361.5C 11.0095,1352.51 6.17613,1342.18 4,1330.5C 2.96462,1321.86 2.29796,1313.2 2,1304.5C 1.83333,1286.67 1.66667,1268.83 1.5,1251C 1.84656,1232.46 1.84656,1214.13 1.5,1196C 1.86727,1180.51 4.36727,1165.35 9,1150.5C 11.6096,1146.26 14.4429,1142.26 17.5,1138.5C 18.5,1138.17 19.1667,1137.5 19.5,1136.5C 21.7657,1132.56 24.7657,1129.23 28.5,1126.5C 29.5,1126.17 30.1667,1125.5 30.5,1124.5C 30.5,1123.83 30.8333,1123.5 31.5,1123.5C 32.5,1123.17 33.1667,1122.5 33.5,1121.5C 34.8936,1119.29 36.8936,1117.79 39.5,1117C 42.7735,1115.8 46.1069,1114.8 49.5,1114C 66.912,1111.35 84.2453,1110.18 101.5,1110.5C 121.696,1109.84 141.863,1109.17 162,1108.5C 167.414,1109.07 172.748,1109.41 178,1109.5C 271.667,1108.83 365.333,1108.17 459,1107.5C 473.481,1107.98 487.981,1108.32 502.5,1108.5 Z"/></g>
<g><path style="opacity:1" fill="#eb0027" d="M 1560.5,1128.5 C 1560.5,1130.5 1561.5,1131.5 1563.5,1131.5C 1565.21,1132.87 1566.54,1134.54 1567.5,1136.5C 1567.83,1137.5 1568.5,1138.17 1569.5,1138.5C 1575.05,1143.59 1578.55,1149.92 1580,1157.5C 1581.74,1170.33 1582.91,1183.17 1583.5,1196C 1583.66,1243.29 1583.49,1290.79 1583,1338.5C 1579.7,1344.94 1575.86,1350.94 1571.5,1356.5C 1570.09,1356.97 1569.43,1357.97 1569.5,1359.5C 1568.83,1360.5 1568.17,1361.5 1567.5,1362.5C 1566.17,1362.5 1565.5,1363.17 1565.5,1364.5C 1563.5,1367.17 1561.17,1369.5 1558.5,1371.5C 1556.97,1371.43 1555.97,1372.09 1555.5,1373.5C 1548.59,1379.63 1540.92,1384.8 1532.5,1389C 1338.15,1390.47 1144.15,1390.97 950.5,1390.5C 950.5,1296.5 950.5,1202.5 950.5,1108.5C 995.167,1108.5 1039.83,1108.5 1084.5,1108.5C 1098.36,1107.89 1112.19,1107.56 1126,1107.5C 1223,1108.17 1320,1108.83 1417,1109.5C 1421.33,1109.17 1425.67,1108.83 1430,1108.5C 1448.33,1109.17 1466.67,1109.83 1485,1110.5C 1503.8,1109.95 1522.63,1111.45 1541.5,1115C 1549.27,1117.55 1555.61,1122.05 1560.5,1128.5 Z"/></g>
<g><path style="opacity:0.525" fill="#fe000c" d="M 33.5,1121.5 C 33.1667,1122.5 32.5,1123.17 31.5,1123.5C 31.5,1122.17 32.1667,1121.5 33.5,1121.5 Z"/></g>
<g><path style="opacity:0.525" fill="#fe000c" d="M 30.5,1124.5 C 30.1667,1125.5 29.5,1126.17 28.5,1126.5C 28.5,1125.17 29.1667,1124.5 30.5,1124.5 Z"/></g>
<g><path style="opacity:0.447" fill="#fd000c" d="M 1560.5,1128.5 C 1561.83,1129.17 1562.83,1130.17 1563.5,1131.5C 1561.5,1131.5 1560.5,1130.5 1560.5,1128.5 Z"/></g>
<g><path style="opacity:0.525" fill="#fe000c" d="M 19.5,1136.5 C 19.1667,1137.5 18.5,1138.17 17.5,1138.5C 17.5,1137.17 18.1667,1136.5 19.5,1136.5 Z"/></g>
<g><path style="opacity:0.525" fill="#fe000c" d="M 1567.5,1136.5 C 1568.83,1136.5 1569.5,1137.17 1569.5,1138.5C 1568.5,1138.17 1567.83,1137.5 1567.5,1136.5 Z"/></g>
<g><path style="opacity:0.476" fill="#fd000c" d="M 1571.5,1356.5 C 1571.57,1358.03 1570.91,1359.03 1569.5,1359.5C 1569.43,1357.97 1570.09,1356.97 1571.5,1356.5 Z"/></g>
<g><path style="opacity:0.476" fill="#fd000c" d="M 18.5,1361.5 C 20.2624,1362.26 21.2624,1363.6 21.5,1365.5C 19.7376,1364.74 18.7376,1363.4 18.5,1361.5 Z"/></g>
<g><path style="opacity:0.427" fill="#fd000c" d="M 1567.5,1362.5 C 1567.17,1363.5 1566.5,1364.17 1565.5,1364.5C 1565.5,1363.17 1566.17,1362.5 1567.5,1362.5 Z"/></g>
<g><path style="opacity:0.476" fill="#fd000c" d="M 1558.5,1371.5 C 1558.03,1372.91 1557.03,1373.57 1555.5,1373.5C 1555.97,1372.09 1556.97,1371.43 1558.5,1371.5 Z"/></g>
<g><path style="opacity:0.476" fill="#fd000c" d="M 28.5,1372.5 C 30.0269,1372.43 31.0269,1373.09 31.5,1374.5C 29.9731,1374.57 28.9731,1373.91 28.5,1372.5 Z"/></g>
<g><path style="opacity:0.476" fill="#fd000c" d="M 32.5,1375.5 C 34.0269,1375.43 35.0269,1376.09 35.5,1377.5C 33.9731,1377.57 32.9731,1376.91 32.5,1375.5 Z"/></g>
<g><path style="opacity:0.403" fill="#fd000c" d="M 40.5,1380.5 C 42.0269,1380.43 43.0269,1381.09 43.5,1382.5C 41.9731,1382.57 40.9731,1381.91 40.5,1380.5 Z"/></g>
<g><path style="opacity:0.549" fill="#fe000c" d="M 569.5,1628.5 C 591.66,1627.5 613.994,1627.17 636.5,1627.5C 636.833,1722 636.499,1816.33 635.5,1910.5C 635.5,1816.5 635.5,1722.5 635.5,1628.5C 613.5,1628.5 591.5,1628.5 569.5,1628.5 Z"/></g>
<g><path style="opacity:1" fill="#eb0027" d="M 569.5,1628.5 C 591.5,1628.5 613.5,1628.5 635.5,1628.5C 635.5,1722.5 635.5,1816.5 635.5,1910.5C 469.026,1910.49 303.193,1910.49 138,1910.5C 120.667,1909.83 103.333,1909.17 86,1908.5C 74.6177,1908.9 63.1177,1908.06 51.5,1906C 45.6401,1903.58 40.3068,1900.41 35.5,1896.5C 35.0269,1895.09 34.0269,1894.43 32.5,1894.5C 31.1667,1893.83 30.1667,1892.83 29.5,1891.5C 28.4154,1889.41 26.7488,1888.08 24.5,1887.5C 24.2624,1885.6 23.2624,1884.26 21.5,1883.5C 18.7805,1881.78 16.7805,1879.45 15.5,1876.5C 15.573,1874.97 14.9063,1873.97 13.5,1873.5C 8.46163,1867.08 5.29497,1859.75 4,1851.5C 2.06279,1832.72 1.22946,1813.89 1.5,1795C 2.00155,1757.39 2.50155,1719.22 3,1680.5C 5.60777,1675.6 8.44111,1670.94 11.5,1666.5C 12.9063,1666.03 13.573,1665.03 13.5,1663.5C 18.2115,1656.28 23.8782,1649.78 30.5,1644C 37.8333,1639.33 45.1667,1634.67 52.5,1630C 95.071,1629.83 137.571,1629.33 180,1628.5C 310.05,1628.49 439.883,1628.49 569.5,1628.5 Z"/></g>
<g><path style="opacity:1" fill="#eb0027" d="M 1535.5,1631.5 C 1535.97,1632.91 1536.97,1633.57 1538.5,1633.5C 1540.43,1634.11 1542.1,1635.11 1543.5,1636.5C 1543.97,1637.91 1544.97,1638.57 1546.5,1638.5C 1548.85,1639.34 1550.85,1640.67 1552.5,1642.5C 1552.97,1643.91 1553.97,1644.57 1555.5,1644.5C 1557.17,1645.5 1558.5,1646.83 1559.5,1648.5C 1559.97,1649.91 1560.97,1650.57 1562.5,1650.5C 1562.5,1650.83 1562.5,1651.17 1562.5,1651.5C 1562.83,1652.5 1563.5,1653.17 1564.5,1653.5C 1571.87,1661.22 1578.04,1669.89 1583,1679.5C 1584.11,1728.28 1584.44,1777.61 1584,1827.5C 1584.53,1844.55 1580.86,1860.55 1573,1875.5C 1572.29,1876.38 1571.46,1877.05 1570.5,1877.5C 1569.09,1877.97 1568.43,1878.97 1568.5,1880.5C 1561.21,1889.63 1552.54,1897.13 1542.5,1903C 1533.36,1905.69 1524.02,1907.35 1514.5,1908C 1500.6,1908.8 1486.77,1909.63 1473,1910.5C 1298.92,1910.49 1124.42,1910.49 949.5,1910.5C 949.168,1816.26 949.501,1722.1 950.5,1628C 1086.03,1627.92 1224.53,1628.42 1366,1629.5C 1379.25,1629.41 1392.58,1629.08 1406,1628.5C 1448.43,1629.33 1490.93,1629.83 1533.5,1630C 1534.42,1630.28 1535.08,1630.78 1535.5,1631.5 Z"/></g>
<g><path style="opacity:0.476" fill="#fd000c" d="M 1535.5,1631.5 C 1537.03,1631.43 1538.03,1632.09 1538.5,1633.5C 1536.97,1633.57 1535.97,1632.91 1535.5,1631.5 Z"/></g>
<g><path style="opacity:0.55" fill="#fe000c" d="M 1543.5,1636.5 C 1545.03,1636.43 1546.03,1637.09 1546.5,1638.5C 1544.97,1638.57 1543.97,1637.91 1543.5,1636.5 Z"/></g>
<g><path style="opacity:0.476" fill="#fd000c" d="M 1552.5,1642.5 C 1554.03,1642.43 1555.03,1643.09 1555.5,1644.5C 1553.97,1644.57 1552.97,1643.91 1552.5,1642.5 Z"/></g>
<g><path style="opacity:0.476" fill="#fd000c" d="M 1559.5,1648.5 C 1561.03,1648.43 1562.03,1649.09 1562.5,1650.5C 1560.97,1650.57 1559.97,1649.91 1559.5,1648.5 Z"/></g>
<g><path style="opacity:0.525" fill="#fe000c" d="M 1562.5,1651.5 C 1563.83,1651.5 1564.5,1652.17 1564.5,1653.5C 1563.5,1653.17 1562.83,1652.5 1562.5,1651.5 Z"/></g>
<g><path style="opacity:0.476" fill="#fd000c" d="M 13.5,1663.5 C 13.573,1665.03 12.9063,1666.03 11.5,1666.5C 11.427,1664.97 12.0937,1663.97 13.5,1663.5 Z"/></g>
<g><path style="opacity:0.476" fill="#fd000c" d="M 13.5,1873.5 C 14.9063,1873.97 15.573,1874.97 15.5,1876.5C 14.0937,1876.03 13.427,1875.03 13.5,1873.5 Z"/></g>
<g><path style="opacity:0.476" fill="#fd000c" d="M 1570.5,1877.5 C 1570.57,1879.03 1569.91,1880.03 1568.5,1880.5C 1568.43,1878.97 1569.09,1877.97 1570.5,1877.5 Z"/></g>
<g><path style="opacity:0.476" fill="#fd000c" d="M 21.5,1883.5 C 23.2624,1884.26 24.2624,1885.6 24.5,1887.5C 22.7376,1886.74 21.7376,1885.4 21.5,1883.5 Z"/></g>
<g><path style="opacity:0.476" fill="#fd000c" d="M 24.5,1887.5 C 26.7488,1888.08 28.4154,1889.41 29.5,1891.5C 27.2512,1890.92 25.5846,1889.59 24.5,1887.5 Z"/></g>
<g><path style="opacity:0.476" fill="#fd000c" d="M 32.5,1894.5 C 34.0269,1894.43 35.0269,1895.09 35.5,1896.5C 33.9731,1896.57 32.9731,1895.91 32.5,1894.5 Z"/></g>
</svg>




