<?xml version="1.0" encoding="UTF-8"?>
<!DOCTYPE svg PUBLIC "-//W3C//DTD SVG 1.1//EN" "http://www.w3.org/Graphics/SVG/1.1/DTD/svg11.dtd">
<svg xmlns="http://www.w3.org/2000/svg" version="1.1" width="1280px" height="720px" style="shape-rendering:geometricPrecision; text-rendering:geometricPrecision; image-rendering:optimizeQuality; fill-rule:evenodd; clip-rule:evenodd" xmlns:xlink="http://www.w3.org/1999/xlink">
<g><path style="opacity:0.991" fill="#e60100" d="M 149.5,202.5 C 216.581,198.785 267.415,225.452 302,282.5C 328,333.833 328,385.167 302,436.5C 267.436,493.702 216.603,520.202 149.5,516C 83.145,505.404 39.3117,468.238 18,404.5C 1.82279,339.712 17.9895,284.545 66.5,239C 90.8069,219.176 118.474,207.009 149.5,202.5 Z"/></g>
<g><path style="opacity:1" fill="#fffefe" d="M 200.5,219.5 C 209.173,219.334 217.84,219.5 226.5,220C 195.945,230.593 180.112,252.093 179,284.5C 230.736,298.889 252.402,332.556 244,385.5C 228.704,431.57 196.871,452.07 148.5,447C 108.981,435.131 86.1473,408.631 80,367.5C 76.2209,323.254 90.7209,286.088 123.5,256C 145.841,236.83 171.507,224.663 200.5,219.5 Z"/></g>
<g><path style="opacity:0.964" fill="#e50000" d="M 687.5,260.5 C 696.711,261.067 705.878,261.4 715,261.5C 715.5,314.499 715.667,367.499 715.5,420.5C 706.475,420.832 697.475,420.498 688.5,419.5C 687.787,417.224 687.287,414.891 687,412.5C 674.575,424.06 660.408,426.56 644.5,420C 628.795,411.463 619.295,398.296 616,380.5C 610.932,357.204 615.599,336.204 630,317.5C 646.4,302.619 665.233,298.452 686.5,305C 685.841,297.743 685.508,290.41 685.5,283C 685.534,275.265 686.201,267.765 687.5,260.5 Z M 669.5,327.5 C 675.521,327.79 681.187,329.29 686.5,332C 685.673,350.76 685.173,369.593 685,388.5C 676.073,398.017 665.906,399.517 654.5,393C 646.485,384.292 642.818,373.959 643.5,362C 642.743,342.972 651.41,331.472 669.5,327.5 Z"/></g>
<g><path style="opacity:0.966" fill="#e50000" d="M 898.5,260.5 C 906.727,260.778 914.727,262.278 922.5,265C 923.684,266.18 924.351,267.68 924.5,269.5C 923.659,276.9 922.492,284.233 921,291.5C 914.124,288.041 906.957,287.208 899.5,289C 894.284,291.764 891.618,296.098 891.5,302C 892.833,303.667 892.833,305.333 891.5,307C 892.416,307.374 893.25,307.874 894,308.5C 900.764,308.306 907.597,308.306 914.5,308.5C 915.498,316.472 915.831,324.472 915.5,332.5C 907.833,332.5 900.167,332.5 892.5,332.5C 892.5,362.833 892.5,393.167 892.5,423.5C 882.833,423.5 873.167,423.5 863.5,423.5C 863.5,393.167 863.5,362.833 863.5,332.5C 858.5,332.5 853.5,332.5 848.5,332.5C 848.334,324.493 848.5,316.493 849,308.5C 853.512,307.77 858.179,307.437 863,307.5C 861.2,291.482 866.034,277.982 877.5,267C 884.167,263.274 891.167,261.108 898.5,260.5 Z"/></g>
<g><path style="opacity:0.967" fill="#e50000" d="M 543.5,303.5 C 578.276,302.114 599.109,318.447 606,352.5C 608.729,371.148 604.729,388.148 594,403.5C 576.891,422.654 556.057,428.154 531.5,420C 512.212,410.965 501.045,395.798 498,374.5C 494.02,349.093 501.854,328.259 521.5,312C 528.469,307.85 535.802,305.017 543.5,303.5 Z M 544.5,329.5 C 559.813,327.01 569.98,333.01 575,347.5C 578.827,361.883 577.16,375.55 570,388.5C 557.33,400.69 544.997,400.357 533,387.5C 524.085,370.602 524.418,353.935 534,337.5C 536.94,333.963 540.44,331.297 544.5,329.5 Z"/></g>
<g><path style="opacity:0.967" fill="#e50000" d="M 781.5,303.5 C 798.784,300.871 813.284,305.871 825,318.5C 828.704,323.942 831.037,329.942 832,336.5C 832.5,364.498 832.667,392.498 832.5,420.5C 823.5,420.5 814.5,420.5 805.5,420.5C 805.477,418.073 804.977,415.74 804,413.5C 787.219,426.217 770.052,426.717 752.5,415C 738.126,400.464 735.959,384.297 746,366.5C 752.981,358.856 761.481,353.689 771.5,351C 781.683,348.435 792.017,346.769 802.5,346C 804.196,337.454 800.863,331.788 792.5,329C 779.637,326.881 768.303,330.048 758.5,338.5C 754.571,332.978 751.404,326.978 749,320.5C 748.333,319.167 748.333,317.833 749,316.5C 759.024,309.887 769.857,305.553 781.5,303.5 Z M 798.5,367.5 C 800.167,367.5 801.833,367.5 803.5,367.5C 803.666,375.174 803.5,382.841 803,390.5C 792.88,398.482 782.214,399.482 771,393.5C 766.395,382.773 769.562,375.273 780.5,371C 786.617,369.707 792.617,368.54 798.5,367.5 Z"/></g>
<g><path style="opacity:0.966" fill="#e50000" d="M 961.5,303.5 C 998.538,302.032 1019.71,319.698 1025,356.5C 1026.2,372.711 1022.53,387.711 1014,401.5C 999.204,420.212 980.038,427.045 956.5,422C 932.457,413.803 918.957,396.97 916,371.5C 913.244,346.399 921.744,326.232 941.5,311C 947.878,307.379 954.545,304.879 961.5,303.5 Z M 963.5,329.5 C 981.738,327.892 992.238,336.225 995,354.5C 996.715,365.721 995.048,376.388 990,386.5C 978.615,399.789 966.282,400.789 953,389.5C 945.972,378.492 943.639,366.492 946,353.5C 947.563,342.141 953.397,334.141 963.5,329.5 Z"/></g>
<g><path style="opacity:0.973" fill="#e50000" d="M 1094.5,303.5 C 1122.96,301.792 1138.79,315.126 1142,343.5C 1142.5,370.165 1142.67,396.831 1142.5,423.5C 1132.5,423.5 1122.5,423.5 1112.5,423.5C 1112.96,396.79 1112.46,370.124 1111,343.5C 1105.4,330.296 1095.9,326.462 1082.5,332C 1078.39,334.448 1074.55,337.281 1071,340.5C 1070.5,368.165 1070.33,395.831 1070.5,423.5C 1060.83,423.5 1051.17,423.5 1041.5,423.5C 1041.5,384.5 1041.5,345.5 1041.5,306.5C 1050.5,306.5 1059.5,306.5 1068.5,306.5C 1068.54,309.321 1069.21,311.988 1070.5,314.5C 1077.84,309.161 1085.84,305.494 1094.5,303.5 Z"/></g>
<g><path style="opacity:0.963" fill="#e50000" d="M 1206.5,304.5 C 1241.03,302.538 1261.19,318.538 1267,352.5C 1267.5,358.825 1267.67,365.158 1267.5,371.5C 1241.83,371.5 1216.17,371.5 1190.5,371.5C 1192.8,389.103 1202.97,397.77 1221,397.5C 1232.83,397.278 1243.66,393.945 1253.5,387.5C 1257.08,394.896 1260.08,402.563 1262.5,410.5C 1252.7,417.379 1241.7,421.213 1229.5,422C 1206.39,425.852 1186.89,419.352 1171,402.5C 1160.45,387.083 1156.78,370.083 1160,351.5C 1165.01,325.321 1180.51,309.654 1206.5,304.5 Z M 1209.5,328.5 C 1224.71,327.436 1233.38,334.436 1235.5,349.5C 1220.83,349.5 1206.17,349.5 1191.5,349.5C 1193.21,338.795 1199.21,331.795 1209.5,328.5 Z"/></g>
<g><path style="opacity:0.959" fill="#e50000" d="M 371.5,311.5 C 382.082,311.18 392.582,311.513 403,312.5C 412.471,336.58 422.138,360.58 432,384.5C 440.835,360.009 450.335,335.842 460.5,312C 470.161,311.5 479.828,311.334 489.5,311.5C 474.5,348.833 459.5,386.167 444.5,423.5C 435.582,423.817 426.749,423.484 418,422.5C 402.201,385.598 386.701,348.598 371.5,311.5 Z"/></g>
</svg>



